<svg width="2726" height="215" viewBox="0 0 2726 215" fill="none" xmlns="http://www.w3.org/2000/svg">
<g clip-path="url(#clip0_6024_414)">
<path d="M241.867 65.5813L189.296 35.2964C185.594 33.1636 179.535 33.1636 175.833 35.2964L30.8007 118.845L111.058 57.3564L72.7639 35.2964C69.0615 33.1636 63.0029 33.1636 59.3005 35.2964L6.72908 65.5813C3.02664 67.7142 -0.00263228 72.9552 1.71643e-06 77.2235V137.767C-0.00263208 142.045 3.02664 147.286 6.72908 149.419L59.3005 179.704C63.0029 181.836 69.0615 181.836 72.7639 179.704L217.796 96.1549L137.539 157.644L175.833 179.704C179.535 181.836 185.594 181.836 189.296 179.704L241.867 149.419C245.57 147.286 248.599 142.045 248.599 137.772V77.228C248.599 72.9552 245.57 67.7142 241.867 65.5813Z" fill="white"/>
<path d="M286.599 171.683V40.2036H312.203L357.529 110.788L403.375 40.2036H428.286V171.683H404.412V76.5327L357.356 149.367L310.473 76.7066V171.683H286.599Z" fill="white"/>
<path d="M504.999 174.796C494.158 174.796 484.526 172.779 476.109 168.742C467.688 164.707 461.058 158.767 456.213 150.923C451.37 143.082 448.948 133.451 448.948 122.033C448.948 111.539 451.11 102.31 455.435 94.3521C459.76 86.394 465.729 80.1392 473.34 75.5815C480.953 71.0269 489.66 68.7485 499.463 68.7485C508.805 68.7485 516.963 70.7974 523.943 74.8892C530.919 78.9849 536.313 84.7231 540.119 92.103C543.924 99.4858 545.828 108.135 545.828 118.052C545.828 119.437 545.768 120.794 545.655 122.119C545.539 123.447 545.366 125.435 545.135 128.087H471.784C473.167 136.392 476.858 142.878 482.856 147.55C488.851 152.22 496.925 154.556 507.076 154.556C519.991 154.556 531.872 150.521 542.713 142.447V163.033C537.524 166.609 531.612 169.464 524.981 171.597C518.348 173.73 511.687 174.796 504.999 174.796ZM498.425 86.7397C491.043 86.7397 485.045 89.019 480.434 93.5737C475.82 98.1313 472.935 104.502 471.784 112.69H523.684C523.684 111.193 523.568 109.866 523.337 108.711C522.183 101.561 519.472 96.1118 515.207 92.3628C510.938 88.6157 505.345 86.7397 498.425 86.7397Z" fill="white"/>
<path d="M566.759 171.683V71.8618H589.077L589.25 92.6226C591.901 85.8188 595.937 80.3989 601.36 76.3599C606.779 72.3247 612.891 70.3052 619.698 70.3052C621.542 70.3052 623.733 70.478 626.272 70.8237C628.807 71.1704 630.827 71.6323 632.327 72.2085V94.5249C630.48 93.9497 628.058 93.4302 625.06 92.9683C622.06 92.5083 619.292 92.2759 616.756 92.2759C608.107 92.2759 601.502 95.0737 596.948 100.667C592.39 106.262 590.115 114.364 590.115 124.972V171.683H566.759Z" fill="white"/>
<path d="M694.186 174.796C683.46 174.796 674.119 172.662 666.161 168.396C658.203 164.13 652.061 158.046 647.736 150.144C643.411 142.246 641.249 132.99 641.249 122.378C641.249 111.652 643.467 102.283 647.909 94.2661C652.347 86.2505 658.519 79.9927 666.42 75.4956C674.319 70.9976 683.46 68.7485 693.84 68.7485C699.031 68.7485 703.815 69.3833 708.2 70.6509C712.582 71.9214 716.733 73.4194 720.656 75.1489V96.7739C716.849 94.4683 712.724 92.7085 708.286 91.4976C703.844 90.2866 699.606 89.6812 695.571 89.6812C686.228 89.6812 678.759 92.5356 673.167 98.2446C667.572 103.954 664.777 111.711 664.777 121.513C664.777 131.779 667.572 139.765 673.167 145.474C678.759 151.183 686.515 154.037 696.435 154.037C700.471 154.037 704.333 153.548 708.027 152.566C711.716 151.587 715.925 150.058 720.656 147.982V168.57C716.963 170.416 712.898 171.914 708.458 173.068C704.018 174.218 699.26 174.796 694.186 174.796Z" fill="white"/>
<path d="M790.718 174.796C779.876 174.796 770.245 172.779 761.828 168.742C753.407 164.707 746.777 158.767 741.932 150.923C737.088 143.082 734.667 133.451 734.667 122.033C734.667 111.539 736.829 102.31 741.154 94.3521C745.479 86.394 751.448 80.1392 759.059 75.5815C766.671 71.0269 775.378 68.7485 785.182 68.7485C794.524 68.7485 802.682 70.7974 809.662 74.8892C816.638 78.9849 822.032 84.7231 825.837 92.103C829.643 99.4858 831.546 108.135 831.546 118.052C831.546 119.437 831.487 120.794 831.374 122.119C831.257 123.447 831.084 125.435 830.854 128.087H757.502C758.886 136.392 762.577 142.878 768.575 147.55C774.57 152.22 782.644 154.556 792.794 154.556C805.709 154.556 817.59 150.521 828.432 142.447V163.033C823.243 166.609 817.331 169.464 810.7 171.597C804.067 173.73 797.406 174.796 790.718 174.796ZM784.144 86.7397C776.762 86.7397 770.764 89.019 766.153 93.5737C761.539 98.1313 758.654 104.502 757.502 112.69H809.403C809.403 111.193 809.287 109.866 809.056 108.711C807.902 101.561 805.191 96.1118 800.925 92.3628C796.657 88.6157 791.064 86.7397 784.144 86.7397Z" fill="white"/>
<path d="M854.478 171.683V71.8618H876.795L876.968 92.6226C879.62 85.8188 883.656 80.3989 889.079 76.3599C894.498 72.3247 900.61 70.3052 907.417 70.3052C909.259 70.3052 911.451 70.478 913.99 70.8237C916.525 71.1704 918.544 71.6323 920.044 72.2085V94.5249C918.201 93.9497 915.779 93.4302 912.779 92.9683C909.779 92.5083 907.011 92.2759 904.475 92.2759C895.826 92.2759 889.221 95.0737 884.667 100.667C880.109 106.262 877.833 114.364 877.833 124.972V171.683H854.478Z" fill="white"/>
<path d="M1041.55 54.7981V129.713C1041.55 138.302 1039.91 145.725 1036.62 151.981C1033.44 158.237 1028.82 163.062 1022.78 166.455C1016.74 169.742 1009.47 171.386 1000.99 171.386C992.613 171.386 985.455 169.742 979.517 166.455C973.579 163.168 968.966 158.608 965.679 152.776C962.392 146.944 960.642 140.158 960.43 132.417H978.085C978.298 137.295 979.252 141.483 980.948 144.983C982.751 148.376 985.296 151.027 988.583 152.935C991.976 154.738 996.112 155.639 1000.99 155.639C1005.97 155.639 1010.16 154.685 1013.55 152.776C1016.95 150.868 1019.49 148.058 1021.19 144.346C1022.99 140.529 1023.89 135.916 1023.89 130.509V54.7981H1041.55ZM1099.55 170.591C1093.61 170.591 1088.1 169.53 1083.01 167.409C1078.02 165.183 1073.68 162.108 1069.96 158.184C1066.25 154.155 1063.34 149.489 1061.22 144.187C1059.2 138.885 1058.19 133.106 1058.19 126.85C1058.19 120.594 1059.2 114.815 1061.22 109.513C1063.34 104.211 1066.25 99.5988 1069.96 95.6754C1073.68 91.646 1078.02 88.5709 1083.01 86.4502C1088.1 84.2234 1093.61 83.11 1099.55 83.11C1105.59 83.11 1111.11 84.2234 1116.09 86.4502C1121.18 88.5709 1125.53 91.646 1129.13 95.6754C1132.84 99.5988 1135.71 104.211 1137.72 109.513C1139.84 114.815 1140.9 120.594 1140.9 126.85C1140.9 133.106 1139.84 138.885 1137.72 144.187C1135.71 149.489 1132.84 154.155 1129.13 158.184C1125.53 162.108 1121.18 165.183 1116.09 167.409C1111.11 169.53 1105.59 170.591 1099.55 170.591ZM1099.55 156.435C1104.21 156.435 1108.4 155.268 1112.11 152.935C1115.93 150.497 1118.9 147.05 1121.02 142.597C1123.25 138.143 1124.36 132.894 1124.36 126.85C1124.36 120.7 1123.25 115.451 1121.02 111.104C1118.9 106.65 1115.93 103.257 1112.11 100.924C1108.4 98.5914 1104.21 97.425 1099.55 97.425C1094.99 97.425 1090.8 98.5914 1086.98 100.924C1083.27 103.257 1080.3 106.65 1078.08 111.104C1075.96 115.451 1074.9 120.7 1074.9 126.85C1074.9 132.894 1075.96 138.143 1078.08 142.597C1080.3 147.05 1083.27 150.497 1086.98 152.935C1090.8 155.268 1094.99 156.435 1099.55 156.435ZM1237.76 126.85C1237.76 135.227 1236.22 142.756 1233.15 149.436C1230.07 156.01 1225.73 161.206 1220.11 165.024C1214.59 168.735 1208.02 170.591 1200.38 170.591C1194.45 170.591 1189.04 169.159 1184.16 166.296C1179.28 163.327 1175.31 159.192 1172.23 153.89V169H1157.28V54.7981H1173.34V99.1746C1176.31 93.9788 1180.13 90.0024 1184.8 87.2455C1189.46 84.4885 1194.66 83.11 1200.38 83.11C1208.02 83.11 1214.59 84.9657 1220.11 88.677C1225.62 92.3883 1229.92 97.5841 1232.99 104.264C1236.17 110.839 1237.76 118.367 1237.76 126.85ZM1221.06 126.85C1221.06 117.307 1218.78 109.99 1214.22 104.901C1209.77 99.8108 1204.1 97.266 1197.2 97.266C1192.75 97.266 1188.72 98.4324 1185.11 100.765C1181.51 102.992 1178.65 106.279 1176.53 110.627C1174.41 114.974 1173.34 120.276 1173.34 126.532C1173.34 132.682 1174.35 137.984 1176.37 142.438C1178.49 146.891 1181.35 150.337 1184.96 152.776C1188.56 155.109 1192.64 156.276 1197.2 156.276C1204.1 156.276 1209.77 153.731 1214.22 148.641C1218.78 143.551 1221.06 136.288 1221.06 126.85ZM1372.07 135.598C1372.07 142.173 1370.32 148.111 1366.82 153.413C1363.42 158.714 1358.49 162.903 1352.02 165.978C1345.56 169.053 1337.71 170.591 1328.48 170.591C1319.26 170.591 1311.31 169.053 1304.63 165.978C1298.05 162.797 1292.91 158.343 1289.2 152.617C1285.49 146.891 1283.37 140.264 1282.84 132.735H1300.65C1301.07 139.946 1303.57 145.725 1308.13 150.072C1312.79 154.42 1319.47 156.594 1328.17 156.594C1333.04 156.594 1337.39 155.851 1341.21 154.367C1345.03 152.882 1348 150.762 1350.12 148.005C1352.34 145.248 1353.46 141.908 1353.46 137.984C1353.46 133.213 1351.87 129.501 1348.68 126.85C1345.5 124.199 1340.63 122.185 1334.05 120.806L1317.51 117.625C1313.48 116.777 1309.61 115.61 1305.9 114.126C1302.29 112.641 1299.01 110.733 1296.04 108.4C1293.17 105.961 1290.89 102.992 1289.2 99.4927C1287.61 95.8875 1286.81 91.699 1286.81 86.9274C1286.81 80.4591 1288.51 74.6801 1291.9 69.5903C1295.4 64.5005 1300.17 60.5241 1306.22 57.6611C1312.37 54.6921 1319.42 53.2076 1327.37 53.2076C1335.32 53.2076 1342.43 54.7451 1348.68 57.8202C1355.05 60.8953 1360.14 65.1898 1363.95 70.7037C1367.88 76.2176 1370.05 82.7919 1370.48 90.4266H1352.66C1352.34 85.867 1351.07 81.8376 1348.84 78.3384C1346.72 74.8391 1343.86 72.1352 1340.25 70.2265C1336.65 68.2118 1332.41 67.2045 1327.53 67.2045C1322.65 67.2045 1318.52 68.1058 1315.12 69.9084C1311.73 71.605 1309.13 73.8848 1307.33 76.7478C1305.53 79.5048 1304.63 82.5268 1304.63 85.814C1304.63 89.4192 1305.53 92.3352 1307.33 94.562C1309.24 96.6828 1311.73 98.3794 1314.81 99.6518C1317.88 100.924 1321.17 101.932 1324.67 102.674L1341.53 106.014C1351.39 108.029 1358.92 111.316 1364.11 115.875C1369.42 120.435 1372.07 127.009 1372.07 135.598ZM1426.36 170.591C1420.42 170.591 1414.91 169.53 1409.82 167.409C1404.83 165.183 1400.49 162.108 1396.77 158.184C1393.06 154.155 1390.15 149.489 1388.03 144.187C1386.01 138.885 1385 133.106 1385 126.85C1385 120.594 1386.01 114.815 1388.03 109.513C1390.15 104.211 1393.06 99.5988 1396.77 95.6754C1400.49 91.646 1404.83 88.5709 1409.82 86.4502C1414.91 84.2234 1420.42 83.11 1426.36 83.11C1432.4 83.11 1437.92 84.2234 1442.9 86.4502C1447.99 88.5709 1452.34 91.646 1455.94 95.6754C1459.65 99.5988 1462.52 104.211 1464.53 109.513C1466.65 114.815 1467.71 120.594 1467.71 126.85C1467.71 133.106 1466.65 138.885 1464.53 144.187C1462.52 149.489 1459.65 154.155 1455.94 158.184C1452.34 162.108 1447.99 165.183 1442.9 167.409C1437.92 169.53 1432.4 170.591 1426.36 170.591ZM1426.36 156.435C1431.02 156.435 1435.21 155.268 1438.92 152.935C1442.74 150.497 1445.71 147.05 1447.83 142.597C1450.06 138.143 1451.17 132.894 1451.17 126.85C1451.17 120.7 1450.06 115.451 1447.83 111.104C1445.71 106.65 1442.74 103.257 1438.92 100.924C1435.21 98.5914 1431.02 97.425 1426.36 97.425C1421.8 97.425 1417.61 98.5914 1413.79 100.924C1410.08 103.257 1407.11 106.65 1404.89 111.104C1402.77 115.451 1401.7 120.7 1401.7 126.85C1401.7 132.894 1402.77 138.143 1404.89 142.597C1407.11 147.05 1410.08 150.497 1413.79 152.935C1417.61 155.268 1421.8 156.435 1426.36 156.435ZM1500.31 169H1484.09V54.7981H1500.31V169ZM1575.26 134.326V84.7006H1591.32V169H1576.37V155.798C1574.25 160.04 1570.86 163.592 1566.19 166.455C1561.53 169.212 1556.33 170.591 1550.6 170.591C1544.98 170.591 1539.95 169.477 1535.49 167.25C1531.15 165.024 1527.75 161.577 1525.31 156.912C1522.98 152.14 1521.82 146.149 1521.82 138.939V84.7006H1537.88V135.757C1537.88 143.074 1539.52 148.376 1542.81 151.663C1546.1 154.844 1550.39 156.435 1555.69 156.435C1559.3 156.435 1562.59 155.533 1565.56 153.731C1568.52 151.822 1570.86 149.224 1572.55 145.937C1574.36 142.544 1575.26 138.673 1575.26 134.326ZM1661.19 153.413V167.569C1658.75 168.735 1656.37 169.53 1654.03 169.954C1651.81 170.378 1649.42 170.591 1646.88 170.591C1641.68 170.591 1637.07 169.636 1633.04 167.728C1629.11 165.819 1626.04 162.85 1623.81 158.82C1621.59 154.791 1620.47 149.701 1620.47 143.551V98.3793H1601.86V84.7006H1620.47V59.7289H1636.54V84.7006H1661.99V98.3793H1636.54V139.893C1636.54 145.725 1637.81 149.807 1640.35 152.14C1643 154.473 1646.45 155.639 1650.69 155.639C1652.6 155.639 1654.4 155.48 1656.1 155.162C1657.9 154.738 1659.6 154.155 1661.19 153.413ZM1693.38 169H1677.32V84.7006H1693.38V169ZM1696.88 65.1367C1696.88 68.1058 1695.77 70.6507 1693.54 72.7714C1691.42 74.7861 1688.66 75.7935 1685.27 75.7935C1681.77 75.7935 1678.91 74.7861 1676.68 72.7714C1674.56 70.6507 1673.5 68.1058 1673.5 65.1367C1673.5 61.9556 1674.56 59.4107 1676.68 57.5021C1678.91 55.4874 1681.77 54.48 1685.27 54.48C1688.66 54.48 1691.42 55.4874 1693.54 57.5021C1695.77 59.4107 1696.88 61.9556 1696.88 65.1367ZM1750.99 170.591C1745.06 170.591 1739.54 169.53 1734.45 167.409C1729.47 165.183 1725.12 162.108 1721.41 158.184C1717.7 154.155 1714.78 149.489 1712.66 144.187C1710.65 138.885 1709.64 133.106 1709.64 126.85C1709.64 120.594 1710.65 114.815 1712.66 109.513C1714.78 104.211 1717.7 99.5988 1721.41 95.6754C1725.12 91.646 1729.47 88.5709 1734.45 86.4502C1739.54 84.2234 1745.06 83.11 1750.99 83.11C1757.04 83.11 1762.55 84.2234 1767.54 86.4502C1772.62 88.5709 1776.97 91.646 1780.58 95.6754C1784.29 99.5988 1787.15 104.211 1789.17 109.513C1791.29 114.815 1792.35 120.594 1792.35 126.85C1792.35 133.106 1791.29 138.885 1789.17 144.187C1787.15 149.489 1784.29 154.155 1780.58 158.184C1776.97 162.108 1772.62 165.183 1767.54 167.409C1762.55 169.53 1757.04 170.591 1750.99 170.591ZM1750.99 156.435C1755.66 156.435 1759.85 155.268 1763.56 152.935C1767.38 150.497 1770.35 147.05 1772.47 142.597C1774.69 138.143 1775.81 132.894 1775.81 126.85C1775.81 120.7 1774.69 115.451 1772.47 111.104C1770.35 106.65 1767.38 103.257 1763.56 100.924C1759.85 98.5914 1755.66 97.425 1750.99 97.425C1746.43 97.425 1742.25 98.5914 1738.43 100.924C1734.72 103.257 1731.75 106.65 1729.52 111.104C1727.4 115.451 1726.34 120.7 1726.34 126.85C1726.34 132.894 1727.4 138.143 1729.52 142.597C1731.75 147.05 1734.72 150.497 1738.43 152.935C1742.25 155.268 1746.43 156.435 1750.99 156.435ZM1824.79 121.442V169H1808.72V84.7006H1823.68V98.6975C1826.54 94.0318 1830.25 90.2675 1834.81 87.4045C1839.48 84.5415 1844.72 83.11 1850.56 83.11C1859.25 83.11 1866.2 85.814 1871.39 91.2219C1876.69 96.6297 1879.34 104.37 1879.34 114.444V169H1863.28V119.852C1863.28 112.641 1861.74 107.074 1858.67 103.151C1855.59 99.2276 1851.03 97.266 1844.99 97.266C1841.28 97.266 1837.88 98.2733 1834.81 100.288C1831.73 102.197 1829.3 104.954 1827.49 108.559C1825.69 112.164 1824.79 116.459 1824.79 121.442ZM1967.48 143.869C1967.48 152.14 1964.41 158.661 1958.26 163.433C1952.11 168.205 1943.41 170.591 1932.17 170.591C1921.14 170.591 1912.4 167.993 1905.93 162.797C1899.56 157.601 1895.96 150.497 1895.11 141.483H1910.54C1910.75 146.785 1912.82 150.974 1916.74 154.049C1920.77 157.018 1926.02 158.502 1932.49 158.502C1938.11 158.502 1942.62 157.495 1946.01 155.48C1949.51 153.466 1951.26 150.497 1951.26 146.573C1951.26 143.074 1950.09 140.423 1947.76 138.62C1945.53 136.818 1941.77 135.439 1936.47 134.485L1922.79 131.94C1915.05 130.456 1909.06 127.752 1904.81 123.828C1900.57 119.799 1898.45 114.603 1898.45 108.241C1898.45 103.257 1899.78 98.9095 1902.43 95.1982C1905.18 91.3809 1909 88.4119 1913.88 86.2911C1918.76 84.1704 1924.43 83.11 1930.9 83.11C1937.69 83.11 1943.62 84.2764 1948.71 86.6092C1953.8 88.836 1957.89 92.0701 1960.96 96.3116C1964.04 100.447 1965.78 105.431 1966.21 111.263H1950.78C1950.25 106.279 1948.24 102.356 1944.74 99.4927C1941.24 96.6297 1936.68 95.1982 1931.06 95.1982C1925.97 95.1982 1921.83 96.2586 1918.65 98.3793C1915.58 100.394 1914.04 103.204 1914.04 106.809C1914.04 110.202 1915.15 112.8 1917.38 114.603C1919.71 116.3 1923.42 117.678 1928.51 118.738L1942.83 121.442C1951.2 122.927 1957.41 125.525 1961.44 129.236C1965.47 132.947 1967.48 137.825 1967.48 143.869Z" fill="#00B4FF"/>
<path d="M2014.95 166.432H2006.5L2016.54 109.667H2025L2020.73 133.464H2048.24L2052.43 109.667H2060.89L2050.85 166.432H2042.39L2046.97 140.896H2019.46L2014.95 166.432ZM2071.62 166.432H2063.17L2073.21 109.667H2093.29C2103.72 109.667 2110.84 115.834 2110.84 124.925C2110.84 134.729 2104.59 141.765 2094.08 143.979L2105.38 166.432H2096.05L2085.46 145.007H2075.34L2071.62 166.432ZM2080.32 116.782L2076.61 137.891H2087.99C2096.92 137.891 2102.3 133.306 2102.3 125.795C2102.3 120.182 2098.35 116.782 2091.55 116.782H2080.32ZM2171.86 149.908C2171.86 160.423 2163.64 167.223 2151.07 167.223C2137.95 167.223 2129.88 160.107 2129.8 148.406H2138.1C2138.26 155.759 2143.48 160.344 2151.46 160.344C2158.66 160.344 2163.32 156.629 2163.32 151.094C2163.32 146.588 2161.19 144.374 2155.02 142.635L2147.83 140.579C2139.37 138.208 2134.86 133.069 2134.86 125.795C2134.86 115.517 2142.93 108.876 2155.34 108.876C2166.8 108.876 2174.55 116.308 2174.63 127.376H2166.33C2166.33 120.498 2161.66 115.675 2154.94 115.675C2147.67 115.675 2143.32 119.233 2143.32 125.084C2143.32 129.669 2146.25 132.199 2151.62 133.701L2159.05 135.836C2167.59 138.208 2171.86 142.872 2171.86 149.908ZM2201.98 158.842L2200.79 165.958C2198.74 166.827 2196.37 167.223 2194.07 167.223C2186.09 167.223 2182.06 161.53 2183.64 152.676L2187.43 131.171H2178.66L2179.84 124.53H2188.62L2190.75 112.118H2198.5L2196.37 124.53H2208.46L2207.28 131.171H2195.1L2191.39 152.676C2190.52 157.498 2192.34 160.028 2196.53 160.028C2198.42 160.028 2200.48 159.554 2201.98 158.842ZM2233.04 166.432L2234.22 159.87C2231.06 164.535 2226.32 167.223 2220.54 167.223C2213.03 167.223 2208.21 162.953 2208.21 156.233C2208.21 147.458 2216.04 142.002 2228.53 142.002C2230.98 142.002 2233.59 142.161 2236.36 142.477L2236.91 139.472C2237.94 133.622 2235.01 129.906 2229.56 129.906C2223.94 129.906 2220.47 133.069 2219.2 139.393H2212.16C2213.43 129.59 2220.15 123.74 2230.27 123.74C2240.15 123.74 2245.84 130.222 2244.18 139.552L2239.44 166.432H2233.04ZM2215.72 155.443C2215.72 159.317 2218.41 161.609 2222.92 161.609C2228.61 161.609 2233.75 157.419 2234.93 150.857L2235.49 147.458C2233.19 147.141 2230.43 146.983 2228.13 146.983C2220.31 146.983 2215.72 150.146 2215.72 155.443ZM2273.32 158.842L2272.13 165.958C2270.08 166.827 2267.71 167.223 2265.41 167.223C2257.43 167.223 2253.4 161.53 2254.98 152.676L2258.77 131.171H2250L2251.18 124.53H2259.96L2262.09 112.118H2269.84L2267.71 124.53H2279.8L2278.62 131.171H2266.44L2262.73 152.676C2261.86 157.498 2263.67 160.028 2267.86 160.028C2269.76 160.028 2271.82 159.554 2273.32 158.842ZM2297.44 167.223C2287.4 167.223 2279.81 160.344 2279.81 149.355C2279.81 134.729 2289.37 123.74 2301.94 123.74C2314.04 123.74 2319.89 133.938 2317.44 147.378H2287.87C2287.79 147.853 2287.79 148.406 2287.79 148.96C2287.79 156.233 2291.67 160.661 2298.07 160.661C2303.13 160.661 2306.61 157.814 2308.66 152.201H2316.49C2313.09 162.479 2306.37 167.223 2297.44 167.223ZM2301.78 129.906C2295.06 129.906 2290.4 135.124 2288.58 142.24H2310.48C2311.27 134.966 2308.03 129.906 2301.78 129.906ZM2336.59 182.481C2326.63 182.481 2320.3 176.868 2320.06 167.223H2327.5C2327.65 172.994 2331.13 176.314 2337.06 176.314C2343.15 176.314 2347.5 172.757 2348.84 165.167L2350.19 157.419C2347.1 162.479 2341.88 165.483 2336.27 165.483C2327.57 165.483 2321.96 159.079 2321.96 149.197C2321.96 135.203 2331.53 123.74 2343.23 123.74C2349 123.74 2353.27 126.744 2355.25 131.962L2356.43 124.53H2363.63L2356.51 165.088C2354.46 176.552 2347.66 182.481 2336.59 182.481ZM2329.79 148.485C2329.79 154.968 2333.11 158.842 2338.64 158.842C2346.94 158.842 2352.79 149.75 2352.79 140.658C2352.79 134.413 2349.32 130.46 2343.62 130.46C2335.95 130.46 2329.79 138.445 2329.79 148.485ZM2407.82 124.53L2377.39 181.691H2369.01L2377.78 165.879L2369.4 124.53H2377.15L2383.16 156.629L2399.52 124.53H2407.82ZM2447.79 167.618C2433.87 167.618 2423.99 157.34 2423.99 142.872C2423.99 123.423 2437.9 108.481 2455.93 108.481C2469.29 108.481 2478.38 117.889 2478.38 131.962H2470.08C2469.84 122.158 2464.15 115.992 2455.06 115.992C2442.25 115.992 2432.61 127.455 2432.61 142.714C2432.61 153.071 2439.09 160.107 2448.66 160.107C2457.83 160.107 2464.55 154.573 2467.95 144.137H2476.33C2471.9 159.158 2461.7 167.618 2447.79 167.618ZM2498.16 167.223C2488.04 167.223 2481.16 160.186 2481.16 149.908C2481.16 135.519 2491.59 123.74 2504.48 123.74C2514.52 123.74 2521.4 130.776 2521.4 140.975C2521.4 155.443 2510.96 167.223 2498.16 167.223ZM2498.95 160.344C2506.93 160.344 2513.42 151.964 2513.42 141.686C2513.42 134.966 2509.62 130.618 2503.69 130.618C2495.63 130.618 2489.14 139.077 2489.14 149.355C2489.14 156.075 2493.02 160.344 2498.95 160.344ZM2549.95 148.169H2526.31L2527.49 141.133H2551.13L2549.95 148.169ZM2596.57 140.421C2596.57 155.522 2587.24 167.223 2575.22 167.223C2569.29 167.223 2564.78 163.902 2563.28 158.447L2559.09 181.691H2551.42L2561.54 124.53H2568.66L2567.23 132.436C2570.55 127.06 2576.01 123.74 2581.86 123.74C2590.64 123.74 2596.57 130.381 2596.57 140.421ZM2588.58 141.212C2588.58 134.65 2584.94 130.618 2579.33 130.618C2570.79 130.618 2565.02 139.947 2565.02 149.75C2565.02 156.154 2568.74 160.344 2574.43 160.344C2582.49 160.344 2588.58 152.043 2588.58 141.212ZM2619.17 113.857C2619.17 117.178 2616.16 120.024 2612.61 120.024C2609.76 120.024 2607.86 118.205 2607.86 115.754C2607.86 112.434 2610.87 109.588 2614.42 109.588C2617.27 109.588 2619.17 111.406 2619.17 113.857ZM2608.26 166.432H2600.59L2608.02 124.53H2615.69L2608.26 166.432ZM2627.02 166.432H2619.35L2629.39 109.667H2637.06L2627.02 166.432ZM2655.5 167.223C2645.38 167.223 2638.51 160.186 2638.51 149.908C2638.51 135.519 2648.94 123.74 2661.83 123.74C2671.87 123.74 2678.75 130.776 2678.75 140.975C2678.75 155.443 2668.31 167.223 2655.5 167.223ZM2656.29 160.344C2664.28 160.344 2670.76 151.964 2670.76 141.686C2670.76 134.966 2666.97 130.618 2661.04 130.618C2652.97 130.618 2646.49 139.077 2646.49 149.355C2646.49 156.075 2650.37 160.344 2656.29 160.344ZM2705.6 158.842L2704.42 165.958C2702.36 166.827 2699.99 167.223 2697.7 167.223C2689.71 167.223 2685.68 161.53 2687.26 152.676L2691.05 131.171H2682.28L2683.47 124.53H2692.24L2694.38 112.118H2702.12L2699.99 124.53H2712.08L2710.9 131.171H2698.72L2695.01 152.676C2694.14 157.498 2695.96 160.028 2700.15 160.028C2702.04 160.028 2704.1 159.554 2705.6 158.842Z" fill="white"/>
</g>
<defs>
<clipPath id="clip0_6024_414">
<rect width="2725.03" height="215" fill="white"/>
</clipPath>
</defs>
</svg>
