<svg width="948" height="148" viewBox="0 0 948 148" fill="none" xmlns="http://www.w3.org/2000/svg">
<g clip-path="url(#clip0_6020_369)">
<path d="M314.344 139.768V8.28857H339.947L385.273 78.8726L431.119 8.28857H456.03V139.768H432.156V44.6177L385.1 117.452L338.218 44.7915V139.768H314.344Z" fill="white"/>
<path d="M532.744 142.881C521.902 142.881 512.27 140.864 503.854 136.827C495.433 132.791 488.803 126.852 483.958 119.008C479.114 111.167 476.692 101.536 476.692 90.1177C476.692 79.6235 478.854 70.395 483.18 62.437C487.505 54.479 493.474 48.2241 501.085 43.6665C508.697 39.1118 517.404 36.8335 527.208 36.8335C536.55 36.8335 544.708 38.8823 551.687 42.9741C558.664 47.0698 564.058 52.8081 567.863 60.188C571.669 67.5708 573.572 76.2202 573.572 86.1372C573.572 87.522 573.513 88.8794 573.399 90.2036C573.283 91.5317 573.11 93.52 572.88 96.1724H499.528C500.912 104.477 504.603 110.963 510.601 115.635C516.596 120.305 524.67 122.641 534.82 122.641C547.735 122.641 559.616 118.606 570.458 110.532V131.118C565.269 134.694 559.356 137.549 552.726 139.682C546.093 141.815 539.432 142.881 532.744 142.881ZM526.17 54.8247C518.788 54.8247 512.79 57.104 508.179 61.6587C503.564 66.2163 500.68 72.5874 499.528 80.7749H551.429C551.429 79.2778 551.312 77.9507 551.082 76.7964C549.928 69.646 547.217 64.1968 542.951 60.4478C538.683 56.7007 533.09 54.8247 526.17 54.8247Z" fill="white"/>
<path d="M594.503 139.768V39.9468H616.821L616.994 60.7075C619.645 53.9038 623.681 48.4839 629.104 44.4448C634.523 40.4097 640.635 38.3901 647.442 38.3901C649.286 38.3901 651.477 38.563 654.016 38.9087C656.551 39.2554 658.571 39.7173 660.071 40.2935V62.6099C658.224 62.0347 655.802 61.5151 652.804 61.0532C649.804 60.5933 647.037 60.3608 644.5 60.3608C635.851 60.3608 629.247 63.1587 624.692 68.7515C620.134 74.3472 617.859 82.4487 617.859 93.0571V139.768H594.503Z" fill="white"/>
<path d="M721.93 142.881C711.205 142.881 701.863 140.747 693.905 136.481C685.947 132.215 679.805 126.131 675.48 118.229C671.155 110.331 668.993 101.075 668.993 90.4634C668.993 79.7368 671.211 70.3677 675.653 62.3511C680.091 54.3354 686.263 48.0776 694.165 43.5806C702.063 39.0825 711.205 36.8335 721.584 36.8335C726.775 36.8335 731.559 37.4683 735.944 38.7358C740.326 40.0063 744.477 41.5044 748.4 43.2339V64.8589C744.593 62.5532 740.468 60.7935 736.03 59.5825C731.588 58.3716 727.35 57.7661 723.315 57.7661C713.972 57.7661 706.503 60.6206 700.911 66.3296C695.316 72.0386 692.521 79.7964 692.521 89.5981C692.521 99.8638 695.316 107.85 700.911 113.559C706.503 119.268 714.259 122.122 724.179 122.122C728.215 122.122 732.078 121.633 735.771 120.651C739.46 119.672 743.669 118.143 748.4 116.067V136.655C744.708 138.5 740.642 139.999 736.203 141.153C731.762 142.303 727.004 142.881 721.93 142.881Z" fill="white"/>
<path d="M818.462 142.881C807.621 142.881 797.989 140.864 789.572 136.827C781.151 132.791 774.521 126.852 769.676 119.008C764.833 111.167 762.411 101.536 762.411 90.1177C762.411 79.6235 764.573 70.395 768.898 62.437C773.223 54.479 779.192 48.2241 786.803 43.6665C794.416 39.1118 803.123 36.8335 812.926 36.8335C822.268 36.8335 830.426 38.8823 837.406 42.9741C844.382 47.0698 849.776 52.8081 853.582 60.188C857.387 67.5708 859.291 76.2202 859.291 86.1372C859.291 87.522 859.231 88.8794 859.118 90.2036C859.001 91.5317 858.829 93.52 858.598 96.1724H785.247C786.63 104.477 790.321 110.963 796.319 115.635C802.314 120.305 810.388 122.641 820.539 122.641C833.454 122.641 845.334 118.606 856.176 110.532V131.118C850.987 134.694 845.075 137.549 838.444 139.682C831.811 141.815 825.15 142.881 818.462 142.881ZM811.888 54.8247C804.506 54.8247 798.508 57.104 793.897 61.6587C789.283 66.2163 786.398 72.5874 785.247 80.7749H837.147C837.147 79.2778 837.031 77.9507 836.8 76.7964C835.646 69.646 832.935 64.1968 828.669 60.4478C824.401 56.7007 818.808 54.8247 811.888 54.8247Z" fill="white"/>
<path d="M882.223 139.768V39.9468H904.54L904.713 60.7075C907.364 53.9038 911.4 48.4839 916.823 44.4448C922.242 40.4097 928.354 38.3901 935.161 38.3901C937.004 38.3901 939.195 38.563 941.734 38.9087C944.27 39.2554 946.289 39.7173 947.789 40.2935V62.6099C945.945 62.0347 943.523 61.5151 940.523 61.0532C937.523 60.5933 934.756 60.3608 932.22 60.3608C923.57 60.3608 916.966 63.1587 912.411 68.7515C907.854 74.3472 905.578 82.4487 905.578 93.0571V139.768H882.223Z" fill="white"/>
<path d="M241.867 31.8845L189.296 1.59965C185.594 -0.533216 179.535 -0.533216 175.833 1.59965L30.8007 85.1483L111.058 23.6596L72.7639 1.59965C69.0615 -0.533216 63.0029 -0.533216 59.3005 1.59965L6.72908 31.8845C3.02664 34.0174 -0.00263228 39.2584 1.71643e-06 43.5267V104.071C-0.00263208 108.348 3.02664 113.589 6.72908 115.722L59.3005 146.007C63.0029 148.14 69.0615 148.14 72.7639 146.007L217.796 62.4582L137.539 123.947L175.833 146.007C179.535 148.14 185.594 148.14 189.296 146.007L241.867 115.722C245.57 113.589 248.599 108.348 248.599 104.075V43.5313C248.599 39.2584 245.57 34.0174 241.867 31.8845Z" fill="white"/>
</g>
<defs>
<clipPath id="clip0_6020_369">
<rect width="947.789" height="147.606" fill="white"/>
</clipPath>
</defs>
</svg>
